# xmcd
#
# Track frame offsets:
#	150
#	13030
#	30746
#	56643
#	74543
#	95018
#	116298
#	135626
#	163397
#
# Disc length: 2521 seconds
#
# Revision: 18
# Processed by: cddbd v1.5.2PL0 Copyright (c) Steve Scherf et al.
# Submitted via: Jack! The Knife 20 Magnifico
#
DISCID=7d09d709
DTITLE=Bulldozer - The Day Of Wrath
DYEAR=1985
DGENRE=Black Metal
TTITLE0=The Exorcism
TTITLE1=Cut Throat
TTITLE2=Insurrection Of The Living Damned
TTITLE3=Fallen Angel
TTITLE4=The Great Deceiver
TTITLE5=Mad Man
TTITLE6=Whisky Time
TTITLE7=Welcome Death
TTITLE8=Endless Funeral
EXTD=Algy Ward
EXTT0=Panigada, Contini
EXTT1=Panigada, Contini
EXTT2=Panigada, Contini
EXTT3=Panigada, Contini
EXTT4=Panigada, Contini
EXTT5=Panigada, Contini
EXTT6=Panigada, Contini
EXTT7=Panigada, Contini
EXTT8=Panigada, Contini
PLAYORDER=
